<svg width="795" height="819" viewBox="0 0 795 819" fill="none" xmlns="http://www.w3.org/2000/svg">
<path d="M6.05999 635.23C6.05999 635.23 -6.46001 619.92 6.05999 610.18C18.58 600.44 49.2 579.57 49.2 579.57C49.2 579.57 64.51 567.05 77.03 593.49C89.55 619.93 153.56 761.86 153.56 761.86C153.56 761.86 167.48 778.56 153.56 789.69C139.64 800.82 111.81 818.91 111.81 818.91C111.81 818.91 91.56 820.3 80.11 796.65C68.66 773 6.04998 635.23 6.04998 635.23H6.05999Z" fill="#F5D5A3"/>
<path d="M108.04 592.72L164.07 711.79C164.07 711.79 169.32 724.05 187.71 724.05C206.1 724.05 388.21 720.55 388.21 720.55C388.21 720.55 404.84 717.05 419.73 704.79L713.91 498.17C713.91 498.17 722.67 487.66 729.67 486.79C729.67 486.79 735.8 466.65 706.03 464.9C676.26 463.15 636.86 464.9 624.61 470.15C612.36 475.4 440.75 587.47 440.75 587.47H299.79L301.54 547.2L403.98 548.08C403.98 548.08 428.49 548.96 430.25 516.56C432.01 484.16 400.3 488.54 400.3 488.54L263.9 490.29C263.9 490.29 222.75 465.78 178.97 490.29C135.19 514.8 111.55 546.32 108.05 592.73L108.04 592.72Z" fill="#F5D5A3"/>
<path d="M769.69 374.43H167.35C153.51 374.43 142.29 385.647 142.29 399.485C142.29 413.322 153.51 424.54 167.35 424.54H769.69C783.53 424.54 794.75 413.322 794.75 399.485C794.75 385.647 783.53 374.43 769.69 374.43Z" fill="#F5D5A3"/>
<path d="M187.29 345.53C187.29 345.53 207.71 65.54 468.52 65.54C729.33 65.54 753.26 345.53 753.26 345.53H187.29Z" fill="#F5D5A3"/>
<path d="M396.81 37.79C396.81 37.79 416.48 0.170013 467.78 0.170013C519.08 0.170013 539.61 37.79 539.61 37.79C539.61 37.79 554.15 51.9 534.05 52.33C513.95 52.76 400.28 52.33 400.28 52.33C400.28 52.33 384.84 52.78 396.8 37.79H396.81Z" fill="#F5D5A3"/>
</svg>
